<!-- <svg xmlns="http://www.w3.org/2000/svg"  viewBox="0 0 48 48" width="48px" height="48px" baseProfile="basic"><path fill="#6c19ff" d="M6.391,10.671c-0.085-2.448,1.822-4.706,4.401-4.706h26.42c2.578,0,4.486,2.258,4.401,4.706	c-0.082,2.352,0.024,5.398,0.791,7.882c0.769,2.492,2.066,4.067,4.19,4.269v2.295c-2.124,0.202-3.421,1.777-4.19,4.269	c-0.767,2.484-0.873,5.53-0.791,7.882c0.085,2.448-1.822,4.706-4.401,4.706h-26.42c-2.578,0-4.486-2.258-4.4-4.706	c0.082-2.352-0.025-5.398-0.791-7.882c-0.769-2.492-2.069-4.067-4.194-4.269v-2.295c2.124-0.202,3.425-1.777,4.194-4.269	C6.367,16.07,6.473,13.023,6.391,10.671z"/><linearGradient id="Is-EGaxKcc0Cic9QMqyzGa" x1="17.846" x2="27.078" y1="-147.541" y2="-163.153" gradientTransform="matrix(1 0 0 -1 0 -132)" gradientUnits="userSpaceOnUse"><stop offset="0" stop-color="#fff"/><stop offset="1" stop-color="#f1e5fc"/></linearGradient><path fill="url(#Is-EGaxKcc0Cic9QMqyzGa)" d="M25.042,34.016c4.366,0,6.997-2.138,6.997-5.664c0-2.665-1.877-4.595-4.665-4.9v-0.111	c2.048-0.333,3.655-2.235,3.655-4.359c0-3.026-2.389-4.997-6.03-4.997h-8.192v20.031H25.042z M19.994,16.525h4.238	c2.304,0,3.612,1.027,3.612,2.887c0,1.985-1.522,3.096-4.281,3.096h-3.57V16.525z M19.994,31.475v-6.594h4.21	c3.015,0,4.579,1.11,4.579,3.276c0,2.165-1.522,3.318-4.394,3.318H19.994z"/></svg> -->

<svg xmlns="http://www.w3.org/2000/svg" width="1em" height="1em" viewBox="0 0 128 128"><defs><linearGradient id="deviconBootstrap0" x1="76.079" x2="523.48" y1="10.798" y2="365.95" gradientTransform="translate(1.11 14.613)scale(.24566)" gradientUnits="userSpaceOnUse"><stop offset="0" stop-color="#9013fe"/><stop offset="1" stop-color="#6610f2"/></linearGradient><linearGradient id="deviconBootstrap1" x1="193.51" x2="293.51" y1="109.74" y2="278.87" gradientTransform="translate(0 52)" gradientUnits="userSpaceOnUse"><stop offset="0" stop-color="#fff"/><stop offset="1" stop-color="#f1e5fc"/></linearGradient><filter id="deviconBootstrap2" width="197" height="249" x="161.9" y="135.46" color-interpolation-filters="sRGB" filterUnits="userSpaceOnUse"><feFlood flood-opacity="0" result="BackgroundImageFix"/><feColorMatrix in="SourceAlpha" values="0 0 0 0 0 0 0 0 0 0 0 0 0 0 0 0 0 0 127 0"/><feOffset dy="4"/><feGaussianBlur stdDeviation="8"/><feColorMatrix values="0 0 0 0 0 0 0 0 0 0 0 0 0 0 0 0 0 0 0.15 0"/><feBlend in2="BackgroundImageFix" result="effect1_dropShadow"/><feBlend in="SourceGraphic" in2="effect1_dropShadow" result="shape"/></filter></defs><path fill="url(#deviconBootstrap0)" d="M14.985 27.712c-.237-6.815 5.072-13.099 12.249-13.099h73.54c7.177 0 12.486 6.284 12.249 13.099c-.228 6.546.068 15.026 2.202 21.94c2.141 6.936 5.751 11.319 11.664 11.883v6.387c-5.913.564-9.523 4.947-11.664 11.883c-2.134 6.914-2.43 15.394-2.202 21.94c.237 6.815-5.072 13.098-12.249 13.098h-73.54c-7.177 0-12.486-6.284-12.249-13.098c.228-6.546-.068-15.026-2.203-21.94c-2.14-6.935-5.76-11.319-11.673-11.883v-6.387c5.913-.563 9.533-4.947 11.673-11.883c2.135-6.914 2.43-15.394 2.203-21.94"/><path fill="url(#deviconBootstrap1)" d="M267.1 364.46c47.297 0 75.798-23.158 75.798-61.355c0-28.873-20.336-49.776-50.532-53.085v-1.203c22.185-3.609 39.594-24.211 39.594-47.219c0-32.783-25.882-54.138-65.322-54.138h-88.74v217zm-54.692-189.48h45.911c24.958 0 39.131 11.128 39.131 31.279c0 21.505-16.484 33.535-46.372 33.535h-38.67zm0 161.96v-71.431h45.602c32.661 0 49.608 12.03 49.608 35.49c0 23.459-16.484 35.941-47.605 35.941z" filter="url(#deviconBootstrap2)" transform="translate(1.494 2.203)scale(.24566)"/></svg>